<svg width="33" height="25" viewBox="0 0 33 25" fill="none" xmlns="http://www.w3.org/2000/svg">
<path d="M22.0809 24.0949C20.8825 24.1275 19.6956 23.8537 18.6325 23.2993C17.5695 22.745 16.6656 21.9285 16.0063 20.9272C13.9312 22.8678 11.2245 23.9929 8.38516 24.0949C3.29816 24.0949 0.540377 20.5079 1.47206 15.365C2.18014 11.4985 5.34787 7.6227 6.23297 4.51088C4.51867 3.46739 1.97517 2.74068 0.782615 4.87424L0 4.39908C0.624228 2.06055 2.13356 0.50464 4.3137 0.50464C6.49384 0.50464 8.10565 1.79968 10.1833 0.607125H11.8417C10.9566 5.26555 8.72056 8.99228 7.52801 15.5141C6.80129 19.511 8.15224 21.3278 10.4349 21.3278C12.1276 21.1146 13.6811 20.2814 14.7951 18.9893C13.884 16.7114 13.4251 14.2779 13.4442 11.8246C13.4442 6.15996 16.0436 0.187866 20.4039 0.187866C22.6399 0.187866 24.2983 1.74378 24.2983 5.43325C24.2983 9.12272 22.0623 14.8339 19.2113 18.4209C19.3653 19.275 19.8126 20.0485 20.4759 20.6081C21.1393 21.1677 21.9771 21.4782 22.8449 21.4862C27.0002 21.4862 29.9071 15.2532 29.9071 9.48607C29.9071 3.71895 27.4101 3.97982 27.6244 2.0326C27.6626 1.54302 27.8924 1.08828 28.2641 0.767263C28.6357 0.446246 29.119 0.2849 29.6089 0.318303C30.904 0.318303 32.6089 1.95807 32.6089 8.61029C32.6089 17.0886 28.0996 24.0949 22.0809 24.0949ZM21.1399 3.11335C19.8449 3.11335 18.5964 7.89289 18.438 12.8308C18.3775 13.8866 18.3962 14.9455 18.4939 15.9985C20.4508 12.7603 21.6425 9.11804 21.9784 5.3494C21.9691 3.67236 21.6617 3.11335 21.1399 3.11335Z" fill="white"/>
</svg>
