<?xml version="1.0" encoding="UTF-8"?>
<!DOCTYPE svg PUBLIC "-//W3C//DTD SVG 1.1//EN" "http://www.w3.org/Graphics/SVG/1.1/DTD/svg11.dtd">
<!-- Creator: CorelDRAW -->
<svg xmlns="http://www.w3.org/2000/svg" width="100" height="100" version="1.1" style="shape-rendering:geometricPrecision; text-rendering:geometricPrecision; image-rendering:optimizeQuality; fill-rule:evenodd; clip-rule:evenodd"
viewBox="0 0 71 100.41"
 xmlns:xlink="http://www.w3.org/1999/xlink"
 xmlns:xodm="http://www.corel.com/coreldraw/odm/2003">
 <defs>
  <style type="text/css">
   <![CDATA[
    .str2 {stroke:#8844EE;stroke-width:0.01;stroke-miterlimit:22.9256}
    .str0 {stroke:#8844EE;stroke-width:0.3;stroke-miterlimit:22.9256}
    .str1 {stroke:#8844EE;stroke-width:0.3;stroke-linecap:round;stroke-linejoin:round;stroke-miterlimit:22.9256}
    .str3 {stroke:#8844EE;stroke-width:0.24;stroke-linecap:round;stroke-linejoin:round;stroke-miterlimit:22.9256}
    .fil0 {fill:#FEFEFE}
    .fil2 {fill:#8844EE}
    .fil1 {fill:#B07DFB}
   ]]>
  </style>
 </defs>
 <g id="Camada_x0020_1">
  <metadata id="CorelCorpID_0Corel-Layer"/>
  <g id="_2476741927280">
   <path class="fil0 str0" d="M42.41 41.44l-0.64 -0.43c-0.17,-0.11 -0.15,-0.07 -0.19,-0.26l-0.13 -0.56c-0.08,-0.39 0,-0.32 -0.37,-0.47l-0.58 -0.22c-0.25,-0.1 -0.25,-0.03 -0.16,-0.27 0.08,-0.25 0.12,-0.21 -0.13,-0.25 -0.32,-0.06 -0.17,-0.15 -0.05,-0.5l0.17 -0.43c0.18,-0.49 0.17,-0.41 0.09,-0.92 -0.07,-0.46 -0.08,-0.44 0.03,-0.89 0.04,-0.14 0.08,-0.29 0.11,-0.44 0.01,-0.05 0.64,0.33 0.72,0.38 0.47,0.27 0.34,0.26 0.87,0.15 0.46,-0.1 0.4,-0.1 0.86,0.03 0.38,0.06 0.33,0.1 0.66,-0.08l0.59 -0.32c0.42,-0.23 0.31,-0.2 0.44,0.31 0.07,0.28 0.08,0.27 0.04,0.55l-0.07 0.48c-0.06,0.4 0,0.27 0.11,0.61l0.23 0.68 0.05 0.23c0.05,0.21 0.08,0.17 -0.14,0.18 -0.23,0 -0.19,-0.02 -0.14,0.22 0.05,0.27 0.09,0.22 -0.16,0.32l-0.75 0.31c-0.21,0.08 -0.17,0.04 -0.21,0.26l-0.1 0.55c-0.06,0.34 -0.02,0.26 -0.32,0.45l-0.51 0.32c-0.19,0.12 -0.13,0.13 -0.32,0.01l0 0z"/>
   <path class="fil1 str1" d="M42.17 40.04c0.98,0 0.98,0.01 0.98,0.01l-0.59 0.75 -0.01 0.52 0.01 -0.52 -0.44 -0.59c-0.14,-0.19 -0.18,-0.17 0.05,-0.17z"/>
   <path class="fil2 str2" d="M42 38.63l0 0c0.07,0 0.14,0.11 0.14,0.24l0 0.09c0,0.14 -0.07,0.25 -0.14,0.25l0 0c-0.08,0 -0.14,-0.11 -0.14,-0.25l0 -0.09c0,-0.13 0.06,-0.24 0.14,-0.24z"/>
   <path class="fil2 str2" d="M43.15 38.63l0 0c0.07,0 0.14,0.11 0.14,0.24l0 0.09c0,0.14 -0.07,0.25 -0.14,0.25l0 0c-0.08,0 -0.14,-0.11 -0.14,-0.25l0 -0.09c0,-0.13 0.06,-0.24 0.14,-0.24z"/>
   <polygon class="fil1 str3" points="40.29,39.39 41.54,37.85 42.57,38.36 43.51,37.84 44.81,39.44 44.75,39.01 45.09,38.95 45,38.46 44.63,37.51 44.76,36.54 44.6,35.85 43.39,36.41 42.58,36.26 41.75,36.4 40.56,35.8 40.37,36.68 40.47,37.56 40.03,38.91 40.37,39 "/>
  </g>
 </g>
</svg>
