<?xml version="1.0" encoding="UTF-8"?>
<!DOCTYPE svg PUBLIC "-//W3C//DTD SVG 1.1//EN" "http://www.w3.org/Graphics/SVG/1.1/DTD/svg11.dtd">
<!-- Creator: CorelDRAW -->
<svg xmlns="http://www.w3.org/2000/svg" xml:space="preserve" width="210mm" height="297mm" version="1.1" style="shape-rendering:geometricPrecision; text-rendering:geometricPrecision; image-rendering:optimizeQuality; fill-rule:evenodd; clip-rule:evenodd"
viewBox="0 0 21000 29700"
 xmlns:xlink="http://www.w3.org/1999/xlink"
 xmlns:xodm="http://www.corel.com/coreldraw/odm/2003">
 <defs>
  <style type="text/css">
   <![CDATA[
    .str0 {stroke:#8844EE;stroke-width:1000;stroke-miterlimit:22.9256}
    .str2 {stroke:#8844EE;stroke-width:20;stroke-miterlimit:22.9256}
    .str3 {stroke:#8844EE;stroke-width:800;stroke-linecap:round;stroke-linejoin:round;stroke-miterlimit:22.9256}
    .str1 {stroke:#8844EE;stroke-width:1000;stroke-linecap:round;stroke-linejoin:round;stroke-miterlimit:22.9256}
    .fil0 {fill:none}
    .fil2 {fill:#8844EE}
    .fil1 {fill:#B07DFB}
   ]]>
  </style>
 </defs>
 <g id="Camada_x0020_1">
  <metadata id="CorelCorpID_0Corel-Layer"/>
  <g id="_1710214977008">
   <path class="fil0 str0" d="M9389.88 23611.3l-2130.23 -1408.56c-560.48,-370.6 -489.82,-224.41 -634.79,-874.98l-413.63 -1856.11c-288.81,-1295.94 -27.38,-1077.8 -1245.84,-1547.39l-1919 -739.58c-828.32,-319.22 -818.74,-119.28 -545.12,-907.84 284.59,-820.17 409.18,-688.49 -414.75,-834.89 -1084.24,-192.65 -582.65,-477.78 -160.43,-1650.64l539.05 -1437.47c602.73,-1607.28 582.16,-1342.91 311.01,-3037.62 -242.29,-1514.35 -249.57,-1463.14 115.22,-2952.69 118.83,-485.22 237.65,-970.44 356.48,-1455.65 39.49,-161.48 2113.04,1100.39 2384.68,1253.74 1570.18,886.37 1141.31,858.5 2897.36,481.5 1533.2,-329.15 1335.5,-307.47 2846.34,116.38 1261.97,189.29 1087.84,340.8 2197.78,-262.24l1939.05 -1053.49c1421.95,-772.57 1056.47,-678.99 1485.72,1027.77 226.45,900.39 240.99,885.04 109.13,1803.98l-231.68 1614.53c-189,1317.17 17.67,876.07 390.1,2011.63l743.12 2265.87 179.79 744.83c169.85,703.63 257.39,583.58 -469.02,601.75 -778.11,19.46 -623.11,-60.96 -476.26,754.02 160.73,891.98 298.79,721.81 -516.19,1053.62l-2488.96 1013.37c-689.56,280.73 -555.3,138.01 -694.34,875.14l-343.16 1819.24c-212.15,1124.59 -73.81,869.32 -1049.23,1482.76l-1693.38 1064.97c-640.75,402.97 -453.1,441.18 -1068.82,34.05z"/>
   <path class="fil1 str1" d="M8602.57 18973.82c3255.16,3.35 3255.17,34.01 3255.17,34.01l-1989.87 2481.61 -5.43 1724.98 5.43 -1724.98 -1436.76 -1939.2c-467.83,-631.42 -598.65,-577.2 171.46,-576.42z"/>
   <g>
    <rect class="fil2 str2" x="7547.41" y="14282.04" width="933.75" height="1923.49" rx="660" ry="823.1"/>
    <rect class="fil2 str2" x="11364.43" y="14282.04" width="933.75" height="1923.49" rx="660" ry="823.1"/>
   </g>
   <polygon class="fil1 str3" points="2335.22,16813.62 6486.87,11718.5 9930.47,13411.12 13023.87,11660.14 17358.41,16986.33 17158.49,15563.54 18298.94,15342.94 17996.45,13717.8 16767.5,10583.7 17187.65,7365.67 16654.88,5060.46 12630.19,6914.95 9963.95,6419.07 7194.29,6891.83 3247.85,4907.88 2606.09,7830.9 2957.21,10725.13 1489,15216.4 2597.83,15533.13 "/>
  </g>
 </g>
</svg>
